<svg width="40" height="40" viewBox="0 0 40 40" fill="none" xmlns="http://www.w3.org/2000/svg">
<rect width="40" height="40" fill="black"/>
<path d="M21.4643 23.8571C20.932 23.8571 20.5 22.9931 20.5 21.9286C20.5 20.864 20.932 20 21.4643 20C21.9966 20 22.4286 20.864 22.4286 21.9286C22.4286 22.9931 21.9966 23.8571 21.4643 23.8571Z" fill="white"/>
<path d="M25.954 4.80686C26.0583 4.89751 26.1419 5.00952 26.1991 5.13529C26.2564 5.26107 26.2859 5.39768 26.2857 5.53586V6.50015H27.25C28.0172 6.50015 28.7531 6.80493 29.2956 7.34745C29.8381 7.88996 30.1429 8.62577 30.1429 9.39301V33.5002H33.0357C33.2915 33.5002 33.5367 33.6018 33.7176 33.7826C33.8984 33.9634 34 34.2087 34 34.4644C34 34.7202 33.8984 34.9655 33.7176 35.1463C33.5367 35.3271 33.2915 35.4287 33.0357 35.4287H7.96429C7.70854 35.4287 7.46327 35.3271 7.28243 35.1463C7.10159 34.9655 7 34.7202 7 34.4644C7 34.2087 7.10159 33.9634 7.28243 33.7826C7.46327 33.6018 7.70854 33.5002 7.96429 33.5002H10.8571V7.46443C10.8572 7.2321 10.9411 7.0076 11.0935 6.8322C11.2458 6.65681 11.4564 6.54232 11.6864 6.50979L25.1864 4.58122C25.3231 4.56171 25.4623 4.57175 25.5947 4.61068C25.7271 4.64961 25.8497 4.71651 25.954 4.80686V4.80686ZM27.25 8.42872H26.2857V33.5002H28.2143V9.39301C28.2143 9.13726 28.1127 8.89199 27.9319 8.71115C27.751 8.53031 27.5058 8.42872 27.25 8.42872V8.42872ZM12.7857 8.30143V33.5002H24.3572V6.64865L12.7857 8.30143Z" fill="white"/>
</svg>
