<svg viewBox="0 0 22 20" fill="none" xmlns="http://www.w3.org/2000/svg">
    <path d="M21 10H4V4.41001C3.99648 4.04986 4.09152 3.69559 4.27483 3.38556C4.45813 3.07552 4.72274 2.82151 5.04 2.65101C5.39105 2.46126 5.79094 2.38114 6.188 2.42101C5.98588 3.03294 5.9571 3.68888 6.10483 4.31616C6.25256 4.94345 6.57104 5.51759 7.025 5.97501L8.085 7.03501C8.17787 7.12799 8.28816 7.20175 8.40956 7.25207C8.53096 7.3024 8.66108 7.3283 8.7925 7.3283C8.92392 7.3283 9.05404 7.3024 9.17544 7.25207C9.29684 7.20175 9.40713 7.12799 9.5 7.03501L13.035 3.50001C13.2225 3.31249 13.3278 3.05818 13.3278 2.79301C13.3278 2.52785 13.2225 2.27354 13.035 2.08601L11.975 1.02601C11.3848 0.438244 10.604 0.0806812 9.77335 0.0177902C8.94275 -0.0451008 8.11701 0.190818 7.445 0.683013C6.83919 0.44627 6.1847 0.361141 5.53849 0.435031C4.89227 0.508921 4.2739 0.739593 3.73716 1.10698C3.20043 1.47436 2.76159 1.96733 2.45883 2.543C2.15607 3.11866 1.99856 3.75959 2 4.41001V10H1C0.734784 10 0.48043 10.1054 0.292893 10.2929C0.105357 10.4804 0 10.7348 0 11C0 11.2652 0.105357 11.5196 0.292893 11.7071C0.48043 11.8947 0.734784 12 1 12H2V15C2.00184 15.6184 2.19507 16.2211 2.55318 16.7254C2.91128 17.2296 3.41669 17.6106 4 17.816V19C4 19.2652 4.10536 19.5196 4.29289 19.7071C4.48043 19.8947 4.73478 20 5 20C5.26522 20 5.51957 19.8947 5.70711 19.7071C5.89464 19.5196 6 19.2652 6 19V18H16V19C16 19.2652 16.1054 19.5196 16.2929 19.7071C16.4804 19.8947 16.7348 20 17 20C17.2652 20 17.5196 19.8947 17.7071 19.7071C17.8946 19.5196 18 19.2652 18 19V17.816C18.5833 17.6106 19.0887 17.2296 19.4468 16.7254C19.8049 16.2211 19.9982 15.6184 20 15V12H21C21.2652 12 21.5196 11.8947 21.7071 11.7071C21.8946 11.5196 22 11.2652 22 11C22 10.7348 21.8946 10.4804 21.7071 10.2929C21.5196 10.1054 21.2652 10 21 10ZM8.44 2.44001C8.72151 2.1596 9.10266 2.00216 9.5 2.00216C9.89734 2.00216 10.2785 2.1596 10.56 2.44001L10.914 2.79301L8.793 4.91401L8.439 4.56101C8.15773 4.27955 7.99973 3.89792 7.99973 3.50001C7.99973 3.1021 8.15773 2.72048 8.439 2.43901L8.44 2.44001ZM18 15C18 15.2652 17.8946 15.5196 17.7071 15.7071C17.5196 15.8947 17.2652 16 17 16H5C4.73478 16 4.48043 15.8947 4.29289 15.7071C4.10536 15.5196 4 15.2652 4 15V12H18V15Z" fill="currentColor" />
</svg>