<svg viewBox="0 0 19 20" fill="none" xmlns="http://www.w3.org/2000/svg">
    <path d="M2.6381 1.31905C2.6381 0.969214 2.77707 0.633709 3.02444 0.38634C3.2718 0.138971 3.60731 0 3.95714 0H14.5095C14.8594 0 15.1949 0.138971 15.4422 0.38634C15.6896 0.633709 15.8286 0.969214 15.8286 1.31905V18.4667H17.8071C17.9821 18.4667 18.1498 18.5362 18.2735 18.6598C18.3972 18.7835 18.4667 18.9513 18.4667 19.1262C18.4667 19.3011 18.3972 19.4689 18.2735 19.5925C18.1498 19.7162 17.9821 19.7857 17.8071 19.7857H0.659524C0.484607 19.7857 0.316855 19.7162 0.19317 19.5925C0.0694853 19.4689 0 19.3011 0 19.1262C0 18.9513 0.0694853 18.7835 0.19317 18.6598C0.316855 18.5362 0.484607 18.4667 0.659524 18.4667H2.6381V1.31905ZM3.95714 18.4667H14.5095V1.31905H3.95714V18.4667Z" fill="currentColor" />
    <path d="M10.5523 10.5522C10.5523 10.902 10.6913 11.2375 10.9387 11.4849C11.186 11.7323 11.5216 11.8712 11.8714 11.8712C12.2212 11.8712 12.5567 11.7323 12.8041 11.4849C13.0515 11.2375 13.1904 10.902 13.1904 10.5522C13.1904 10.2024 13.0515 9.86686 12.8041 9.61949C12.5567 9.37213 12.2212 9.23315 11.8714 9.23315C11.5216 9.23315 11.186 9.37213 10.9387 9.61949C10.6913 9.86686 10.5523 10.2024 10.5523 10.5522Z" fill="currentColor" />
</svg>