<svg viewBox="0 0 21 24" fill="none" xmlns="http://www.w3.org/2000/svg">
    <path d="M11.25 15C10.836 15 10.5 14.328 10.5 13.5C10.5 12.672 10.836 12 11.25 12C11.664 12 12 12.672 12 13.5C12 14.328 11.664 15 11.25 15Z" fill="currentColor" />
    <path d="M14.742 0.183033C14.8231 0.253538 14.8881 0.340654 14.9327 0.43848C14.9772 0.536306 15.0001 0.642556 15 0.750033V1.50003H15.75C16.3467 1.50003 16.919 1.73709 17.341 2.15904C17.7629 2.581 18 3.1533 18 3.75003V22.5H20.25C20.4489 22.5 20.6397 22.579 20.7803 22.7197C20.921 22.8604 21 23.0511 21 23.25C21 23.4489 20.921 23.6397 20.7803 23.7804C20.6397 23.921 20.4489 24 20.25 24H0.75C0.551088 24 0.360322 23.921 0.21967 23.7804C0.0790176 23.6397 0 23.4489 0 23.25C0 23.0511 0.0790176 22.8604 0.21967 22.7197C0.360322 22.579 0.551088 22.5 0.75 22.5H3V2.25003C3.00003 2.06933 3.06529 1.89471 3.1838 1.7583C3.3023 1.62188 3.46608 1.53283 3.645 1.50753L14.145 0.00753321C14.2513 -0.00764386 14.3596 0.000170158 14.4626 0.0304471C14.5656 0.0607241 14.6608 0.112758 14.742 0.183033V0.183033ZM15.75 3.00003H15V22.5H16.5V3.75003C16.5 3.55112 16.421 3.36036 16.2803 3.2197C16.1397 3.07905 15.9489 3.00003 15.75 3.00003V3.00003ZM4.5 2.90103V22.5H13.5V1.61553L4.5 2.90103Z" fill="currentColor" />
</svg>