<svg viewBox="0 0 21 19" fill="none" xmlns="http://www.w3.org/2000/svg">
    <path d="M8.5 3C7.70435 3 6.94129 3.31607 6.37868 3.87868C5.81607 4.44129 5.5 5.20435 5.5 6C5.5 6.79565 5.81607 7.55871 6.37868 8.12132C6.94129 8.68393 7.70435 9 8.5 9C9.29565 9 10.0587 8.68393 10.6213 8.12132C11.1839 7.55871 11.5 6.79565 11.5 6C11.5 5.20435 11.1839 4.44129 10.6213 3.87868C10.0587 3.31607 9.29565 3 8.5 3ZM7 6C7 5.60218 7.15804 5.22064 7.43934 4.93934C7.72064 4.65804 8.10218 4.5 8.5 4.5C8.89782 4.5 9.27936 4.65804 9.56066 4.93934C9.84196 5.22064 10 5.60218 10 6C10 6.39782 9.84196 6.77936 9.56066 7.06066C9.27936 7.34196 8.89782 7.5 8.5 7.5C8.10218 7.5 7.72064 7.34196 7.43934 7.06066C7.15804 6.77936 7 6.39782 7 6ZM0 2.25C0 1.65326 0.237053 1.08097 0.65901 0.65901C1.08097 0.237053 1.65326 0 2.25 0H14.75C15.0455 0 15.3381 0.0581978 15.611 0.171271C15.884 0.284344 16.1321 0.450078 16.341 0.65901C16.5499 0.867942 16.7157 1.11598 16.8287 1.38896C16.9418 1.66194 17 1.95453 17 2.25V7H15.5V4.5H14.75C14.1533 4.5 13.581 4.26295 13.159 3.84099C12.7371 3.41903 12.5 2.84674 12.5 2.25V1.5H4.5V2.25C4.5 2.84674 4.26295 3.41903 3.84099 3.84099C3.41903 4.26295 2.84674 4.5 2.25 4.5H1.5V7.5H2.25C2.84674 7.5 3.41903 7.73705 3.84099 8.15901C4.26295 8.58097 4.5 9.15326 4.5 9.75V10.5H12V12H2.25C1.65326 12 1.08097 11.7629 0.65901 11.341C0.237053 10.919 0 10.3467 0 9.75V2.25ZM2.25 1.5C2.05109 1.5 1.86032 1.57902 1.71967 1.71967C1.57902 1.86032 1.5 2.05109 1.5 2.25V3H2.25C2.44891 3 2.63968 2.92098 2.78033 2.78033C2.92098 2.63968 3 2.44891 3 2.25V1.5H2.25ZM15.5 3V2.25C15.5 2.05109 15.421 1.86032 15.2803 1.71967C15.1397 1.57902 14.9489 1.5 14.75 1.5H14V2.25C14 2.664 14.336 3 14.75 3H15.5ZM1.5 9.75C1.5 10.164 1.836 10.5 2.25 10.5H3V9.75C3 9.55109 2.92098 9.36032 2.78033 9.21967C2.63968 9.07902 2.44891 9 2.25 9H1.5V9.75ZM2.401 13.5H12V15H5C4.47323 15.0002 3.95571 14.8616 3.49948 14.5983C3.04324 14.335 2.66438 13.9562 2.401 13.5ZM20 7V5C20.0002 4.47323 19.8616 3.95571 19.5983 3.49948C19.335 3.04324 18.9562 2.66438 18.5 2.401V7H20ZM14.5 8C14.1022 8 13.7206 8.15804 13.4393 8.43934C13.158 8.72064 13 9.10218 13 9.5V17.5C13 17.8978 13.158 18.2794 13.4393 18.5607C13.7206 18.842 14.1022 19 14.5 19H19.5C19.8978 19 20.2794 18.842 20.5607 18.5607C20.842 18.2794 21 17.8978 21 17.5V9.5C21 9.10218 20.842 8.72064 20.5607 8.43934C20.2794 8.15804 19.8978 8 19.5 8H14.5ZM15 12.5H16C16.1326 12.5 16.2598 12.5527 16.3536 12.6464C16.4473 12.7402 16.5 12.8674 16.5 13C16.5 13.1326 16.4473 13.2598 16.3536 13.3536C16.2598 13.4473 16.1326 13.5 16 13.5H15C14.8674 13.5 14.7402 13.4473 14.6464 13.3536C14.5527 13.2598 14.5 13.1326 14.5 13C14.5 12.8674 14.5527 12.7402 14.6464 12.6464C14.7402 12.5527 14.8674 12.5 15 12.5ZM18 12.5H19C19.1326 12.5 19.2598 12.5527 19.3536 12.6464C19.4473 12.7402 19.5 12.8674 19.5 13C19.5 13.1326 19.4473 13.2598 19.3536 13.3536C19.2598 13.4473 19.1326 13.5 19 13.5H18C17.8674 13.5 17.7402 13.4473 17.6464 13.3536C17.5527 13.2598 17.5 13.1326 17.5 13C17.5 12.8674 17.5527 12.7402 17.6464 12.6464C17.7402 12.5527 17.8674 12.5 18 12.5ZM15 14.5H16C16.1326 14.5 16.2598 14.5527 16.3536 14.6464C16.4473 14.7402 16.5 14.8674 16.5 15C16.5 15.1326 16.4473 15.2598 16.3536 15.3536C16.2598 15.4473 16.1326 15.5 16 15.5H15C14.8674 15.5 14.7402 15.4473 14.6464 15.3536C14.5527 15.2598 14.5 15.1326 14.5 15C14.5 14.8674 14.5527 14.7402 14.6464 14.6464C14.7402 14.5527 14.8674 14.5 15 14.5ZM18 14.5H19C19.1326 14.5 19.2598 14.5527 19.3536 14.6464C19.4473 14.7402 19.5 14.8674 19.5 15C19.5 15.1326 19.4473 15.2598 19.3536 15.3536C19.2598 15.4473 19.1326 15.5 19 15.5H18C17.8674 15.5 17.7402 15.4473 17.6464 15.3536C17.5527 15.2598 17.5 15.1326 17.5 15C17.5 14.8674 17.5527 14.7402 17.6464 14.6464C17.7402 14.5527 17.8674 14.5 18 14.5ZM15 16.5H16C16.1326 16.5 16.2598 16.5527 16.3536 16.6464C16.4473 16.7402 16.5 16.8674 16.5 17C16.5 17.1326 16.4473 17.2598 16.3536 17.3536C16.2598 17.4473 16.1326 17.5 16 17.5H15C14.8674 17.5 14.7402 17.4473 14.6464 17.3536C14.5527 17.2598 14.5 17.1326 14.5 17C14.5 16.8674 14.5527 16.7402 14.6464 16.6464C14.7402 16.5527 14.8674 16.5 15 16.5ZM18 16.5H19C19.1326 16.5 19.2598 16.5527 19.3536 16.6464C19.4473 16.7402 19.5 16.8674 19.5 17C19.5 17.1326 19.4473 17.2598 19.3536 17.3536C19.2598 17.4473 19.1326 17.5 19 17.5H18C17.8674 17.5 17.7402 17.4473 17.6464 17.3536C17.5527 17.2598 17.5 17.1326 17.5 17C17.5 16.8674 17.5527 16.7402 17.6464 16.6464C17.7402 16.5527 17.8674 16.5 18 16.5ZM14.5 10C14.5 9.86739 14.5527 9.74021 14.6464 9.64645C14.7402 9.55268 14.8674 9.5 15 9.5H19C19.1326 9.5 19.2598 9.55268 19.3536 9.64645C19.4473 9.74021 19.5 9.86739 19.5 10V11C19.5 11.1326 19.4473 11.2598 19.3536 11.3536C19.2598 11.4473 19.1326 11.5 19 11.5H15C14.8674 11.5 14.7402 11.4473 14.6464 11.3536C14.5527 11.2598 14.5 11.1326 14.5 11V10Z" fill="currentColor" />
</svg>