<svg viewBox="0 0 24 23" fill="none" xmlns="http://www.w3.org/2000/svg">
    <path d="M12 0.00535063C8.92361 -0.0878474 5.93525 1.0396 3.68708 3.14164C1.43891 5.24368 0.113461 8.14964 0 11.2254C0.113461 14.3011 1.43891 17.207 3.68708 19.3091C5.93525 21.4111 8.92361 22.5385 12 22.4454C15.0764 22.5385 18.0648 21.4111 20.3129 19.3091C22.5611 17.207 23.8865 14.3011 24 11.2254C23.8865 8.14964 22.5611 5.24368 20.3129 3.14164C18.0648 1.0396 15.0764 -0.0878474 12 0.00535063ZM12 20.5704C9.41968 20.6679 6.90578 19.7394 5.0083 17.9881C3.11081 16.2368 1.98422 13.8052 1.875 11.2254C1.98422 8.6455 3.11081 6.21393 5.0083 4.46262C6.90578 2.71131 9.41968 1.78285 12 1.88035C14.5803 1.78285 17.0942 2.71131 18.9917 4.46262C20.8892 6.21393 22.0158 8.6455 22.125 11.2254C22.0158 13.8052 20.8892 16.2368 18.9917 17.9881C17.0942 19.7394 14.5803 20.6679 12 20.5704Z" fill="currentColor" />
    <path d="M13.5001 10.2953H10.5001C10.4316 10.2897 10.365 10.2704 10.3041 10.2384C10.2433 10.2065 10.1896 10.1626 10.1462 10.1093C10.1027 10.0561 10.0705 9.99465 10.0514 9.92865C10.0323 9.86265 10.0268 9.79348 10.0351 9.72528C10.0401 9.72509 10.0451 9.72509 10.0501 9.72528C10.0661 9.61308 10.119 9.50941 10.2005 9.43064C10.282 9.35186 10.3874 9.30248 10.5001 9.29028H13.4101C13.5307 9.29252 13.6466 9.33746 13.7373 9.4171C13.8279 9.49674 13.8874 9.60594 13.9051 9.72528H15.7801C15.7607 9.10842 15.5029 8.52309 15.061 8.09231C14.619 7.66154 14.0272 7.41886 13.4101 7.41528H12.9301V5.54028H11.0551V7.41528H10.5001C9.88814 7.42653 9.30395 7.67261 8.86838 8.10259C8.43282 8.53257 8.17923 9.11354 8.16008 9.72528C8.15346 10.2714 8.33933 10.8025 8.68508 11.2253C8.90004 11.5048 9.17432 11.7333 9.48817 11.8941C9.80201 12.0549 10.1476 12.1441 10.5001 12.1553H13.5001C13.5711 12.1569 13.6411 12.1733 13.7054 12.2035C13.7698 12.2337 13.8271 12.2771 13.8737 12.3308C13.9203 12.3844 13.9552 12.4472 13.9761 12.5152C13.997 12.5831 14.0035 12.6547 13.9951 12.7253C13.9804 12.8459 13.9218 12.9569 13.8305 13.0371C13.7392 13.1173 13.6216 13.1612 13.5001 13.1603H10.6201C10.4986 13.1612 10.381 13.1173 10.2897 13.0371C10.1984 12.9569 10.1398 12.8459 10.1251 12.7253H8.23508C8.25074 13.3434 8.50733 13.9309 8.9501 14.3625C9.39288 14.794 9.98678 15.0355 10.6051 15.0353H11.0701V16.9103H12.9301V15.0353H13.5001C14.1132 15.0277 14.6995 14.7828 15.1358 14.3521C15.5722 13.9213 15.8246 13.3382 15.8401 12.7253C15.8562 12.1802 15.6751 11.6476 15.3301 11.2253C15.1135 10.9438 14.8369 10.7142 14.5203 10.5533C14.2037 10.3924 13.8551 10.3043 13.5001 10.2953Z" fill="currentColor" />
</svg>