<svg viewBox="0 0 18 18" fill="none" xmlns="http://www.w3.org/2000/svg">
    <path d="M17.0625 5.85938C17.1656 5.85938 17.25 5.775 17.25 5.67188V4.26562C17.25 4.1625 17.1656 4.07812 17.0625 4.07812H13.2188V0.1875C13.2188 0.084375 13.1344 0 13.0312 0H11.5312C11.4281 0 11.3438 0.084375 11.3438 0.1875V4.07812H6V0.1875C6 0.084375 5.91563 0 5.8125 0H4.3125C4.20937 0 4.125 0.084375 4.125 0.1875V4.07812H0.1875C0.084375 4.07812 0 4.1625 0 4.26562V5.67188C0 5.775 0.084375 5.85938 0.1875 5.85938H4.125V11.3906H0.1875C0.084375 11.3906 0 11.475 0 11.5781V12.9844C0 13.0875 0.084375 13.1719 0.1875 13.1719H4.125V17.0625C4.125 17.1656 4.20937 17.25 4.3125 17.25H5.8125C5.91563 17.25 6 17.1656 6 17.0625V13.1719H11.3438V17.0625C11.3438 17.1656 11.4281 17.25 11.5312 17.25H13.0312C13.1344 17.25 13.2188 17.1656 13.2188 17.0625V13.1719H17.0625C17.1656 13.1719 17.25 13.0875 17.25 12.9844V11.5781C17.25 11.475 17.1656 11.3906 17.0625 11.3906H13.2188V5.85938H17.0625ZM11.3438 11.3906H6V5.85938H11.3438V11.3906Z" fill="currentColor" />
</svg>