<svg viewBox="0 0 20 21" fill="none" xmlns="http://www.w3.org/2000/svg">
    <path d="M0 0V19.5H12V18H1.5V1.5H9V6H13.5V7.5H15V4.95L14.775 4.725L10.275 0.225L10.05 0H0V0ZM10.5 2.55L12.45 4.5H10.5V2.55ZM3 7.5V9H12V7.5H3ZM15.75 9V10.5C14.475 10.725 13.5 11.775 13.5 13.125C13.5 14.625 14.625 15.75 16.125 15.75H16.875C17.475 15.75 18 16.275 18 16.875C18 17.475 17.475 18 16.875 18H14.25V19.5H15.75V21H17.25V19.5C18.525 19.275 19.5 18.225 19.5 16.875C19.5 15.375 18.375 14.25 16.875 14.25H16.125C15.525 14.25 15 13.725 15 13.125C15 12.525 15.525 12 16.125 12H18.75V10.5H17.25V9H15.75ZM3 11.25V12.75H8.25V11.25H3ZM9.75 11.25V12.75H12V11.25H9.75ZM3 14.25V15.75H8.25V14.25H3ZM9.75 14.25V15.75H12V14.25H9.75Z" fill="currentColor" />
</svg>