<svg xmlns="http://www.w3.org/2000/svg" viewBox="0 0 29.0942 26.0316">
    <g>
        <g>
            <path fill="currentColor" d="M12,20.0316a6,6,0,1,1-1.7574-4.2427A6,6,0,0,1,12,20.0316ZM9.0225,17.7591a.5626.5626,0,0,0-.81.0165L5.6077,21.0943l-1.57-1.57a.5625.5625,0,0,0-.795.795l1.9845,1.9853a.5623.5623,0,0,0,.8092-.015l2.9941-3.7425a.5625.5625,0,0,0-.0076-.7875Z" />
            <path fill="currentColor" d="M28.85,8.6564a.871.871,0,0,0-.5892-.2246h-.8331V3.8326a.7371.7371,0,0,0-.2441-.542.8717.8717,0,0,0-.5891-.2245H6.5982a.88.88,0,0,1-.5419-.1737.7569.7569,0,0,1-.2913-.4548v-.276a.7569.7569,0,0,1,.2913-.4549.8808.8808,0,0,1,.5419-.1737H26.2448a.871.871,0,0,0,.5891-.2245.7368.7368,0,0,0,.244-.542.7368.7368,0,0,0-.244-.542A.871.871,0,0,0,26.2448,0H6.5982A2.6134,2.6134,0,0,0,4.8308.6735,2.21,2.21,0,0,0,4.0986,2.3a2.1911,2.1911,0,0,0,0,.276V14.5905A5.8313,5.8313,0,0,1,5.765,14.3V4.5072a2.8048,2.8048,0,0,0,.8332.092H25.7615V8.4318H19.9291a4.3562,4.3562,0,0,0-2.9456,1.1226,3.62,3.62,0,0,0,0,5.42,4.3562,4.3562,0,0,0,2.9456,1.1226h5.8324V19.93H11.7325c.0007.0342.0052.0674.0052.1018a5.6766,5.6766,0,0,1-.1891,1.4313H26.5947a.8717.8717,0,0,0,.5891-.2245.7371.7371,0,0,0,.2441-.542V16.0972h.8331a.8714.8714,0,0,0,.5892-.2245.7368.7368,0,0,0,.244-.5421V9.1984A.7364.7364,0,0,0,28.85,8.6564Zm-1.4223,5.9077H19.9291a2.6141,2.6141,0,0,1-1.7674-.6735,2.1718,2.1718,0,0,1,0-3.2521,2.6137,2.6137,0,0,1,1.7674-.6736h7.4988Z" />
            <path fill="currentColor" d="M20.7707,13.4141a1.1538,1.1538,0,1,0-1.25-1.15A1.2029,1.2029,0,0,0,20.7707,13.4141Z" />
        </g>
    </g>
</svg>