<svg viewBox="0 0 16 23" fill="none" xmlns="http://www.w3.org/2000/svg">
    <path d="M7.75003 17.5V11.5M10 17.5V16.375C10 15.0157 11.4785 13.7299 12.4375 12.8125C13.7894 11.5202 14.5 9.78393 14.5 7.75003C14.5 4.00003 11.5127 1.00003 7.75003 1.00003C6.86291 0.997552 5.98405 1.17046 5.16399 1.5088C4.34392 1.84714 3.59883 2.34425 2.97154 2.97154C2.34425 3.59883 1.84714 4.34392 1.5088 5.16399C1.17046 5.98405 0.997552 6.86291 1.00003 7.75003C1.00003 9.71128 1.74112 11.5652 3.06253 12.8125C4.01643 13.713 5.50003 15.0016 5.50003 16.375V17.5H10ZM6.25003 22H9.25003H6.25003ZM5.50003 19.75H10H5.50003Z" stroke="currentColor" stroke-width="1.5" stroke-linecap="round" stroke-linejoin="round" />
    <path d="M9.53125 10.75C9.53125 10.75 8.52297 11.5 7.75 11.5C6.97703 11.5 5.96875 10.75 5.96875 10.75" stroke="currentColor" stroke-width="1.5" stroke-linecap="round" stroke-linejoin="round" />
</svg>