<svg viewBox="0 0 18 21" fill="none" xmlns="http://www.w3.org/2000/svg">
    <path d="M1.5 21H10.5C10.8977 20.9996 11.279 20.8414 11.5602 20.5602C11.8414 20.279 11.9996 19.8977 12 19.5V17.25H10.5V19.5H1.5V1.5H10.5V3.75H12V1.5C11.9996 1.1023 11.8414 0.720997 11.5602 0.439778C11.279 0.15856 10.8977 0.000397108 10.5 0H1.5C1.1023 0.000397108 0.720997 0.15856 0.439779 0.439778C0.15856 0.720997 0.000397108 1.1023 0 1.5V19.5C0.000397108 19.8977 0.15856 20.279 0.439779 20.5602C0.720997 20.8414 1.1023 20.9996 1.5 21Z" fill="currentColor" />
    <path d="M12.4395 13.9395L15.129 11.25H4.5V9.75H15.129L12.4395 7.0605L13.5 6L18 10.5L13.5 15L12.4395 13.9395Z" fill="currentColor" />
</svg>