<svg viewBox="0 0 20 15" fill="none" xmlns="http://www.w3.org/2000/svg">
    <path d="M6 6C6 5.36348 6.25286 4.75303 6.70294 4.30294C7.15303 3.85286 7.76348 3.6 8.4 3.6C9.03652 3.6 9.64697 3.85286 10.0971 4.30294C10.5471 4.75303 10.8 5.36348 10.8 6C10.8 6.63652 10.5471 7.24697 10.0971 7.69706C9.64697 8.14714 9.03652 8.4 8.4 8.4C7.76348 8.4 7.15303 8.14714 6.70294 7.69706C6.25286 7.24697 6 6.63652 6 6ZM8.4 4.8C8.08174 4.8 7.77652 4.92643 7.55147 5.15147C7.32643 5.37652 7.2 5.68174 7.2 6C7.2 6.31826 7.32643 6.62348 7.55147 6.84853C7.77652 7.07357 8.08174 7.2 8.4 7.2C8.71826 7.2 9.02348 7.07357 9.24853 6.84853C9.47357 6.62348 9.6 6.31826 9.6 6C9.6 5.68174 9.47357 5.37652 9.24853 5.15147C9.02348 4.92643 8.71826 4.8 8.4 4.8ZM1.8 0C1.32261 0 0.864773 0.189642 0.527208 0.527208C0.189642 0.864773 0 1.32261 0 1.8V10.2C0 10.6774 0.189642 11.1352 0.527208 11.4728C0.864773 11.8104 1.32261 12 1.8 12H15C15.4774 12 15.9352 11.8104 16.2728 11.4728C16.6104 11.1352 16.8 10.6774 16.8 10.2V1.8C16.8 1.32261 16.6104 0.864773 16.2728 0.527208C15.9352 0.189642 15.4774 0 15 0H1.8ZM1.2 1.8C1.2 1.64087 1.26321 1.48826 1.37574 1.37574C1.48826 1.26321 1.64087 1.2 1.8 1.2H3.6V2.4C3.6 2.71826 3.47357 3.02348 3.24853 3.24853C3.02348 3.47357 2.71826 3.6 2.4 3.6H1.2V1.8ZM1.2 4.8H2.4C3.03652 4.8 3.64697 4.54714 4.09706 4.09706C4.54714 3.64697 4.8 3.03652 4.8 2.4V1.2H12V2.4C12 3.03652 12.2529 3.64697 12.7029 4.09706C13.153 4.54714 13.7635 4.8 14.4 4.8H15.6V7.2H14.4C13.7635 7.2 13.153 7.45286 12.7029 7.90294C12.2529 8.35303 12 8.96348 12 9.6V10.8H4.8V9.6C4.8 8.96348 4.54714 8.35303 4.09706 7.90294C3.64697 7.45286 3.03652 7.2 2.4 7.2H1.2V4.8ZM13.2 1.2H15C15.1591 1.2 15.3117 1.26321 15.4243 1.37574C15.5368 1.48826 15.6 1.64087 15.6 1.8V3.6H14.4C14.0817 3.6 13.7765 3.47357 13.5515 3.24853C13.3264 3.02348 13.2 2.71826 13.2 2.4V1.2ZM15.6 8.4V10.2C15.6 10.3591 15.5368 10.5117 15.4243 10.6243C15.3117 10.7368 15.1591 10.8 15 10.8H13.2V9.6C13.2 9.28174 13.3264 8.97652 13.5515 8.75147C13.7765 8.52643 14.0817 8.4 14.4 8.4H15.6ZM3.6 10.8H1.8C1.64087 10.8 1.48826 10.7368 1.37574 10.6243C1.26321 10.5117 1.2 10.3591 1.2 10.2V8.4H2.4C2.71826 8.4 3.02348 8.52643 3.24853 8.75147C3.47357 8.97652 3.6 9.28174 3.6 9.6V10.8ZM18 10.2C18 10.9956 17.6839 11.7587 17.1213 12.3213C16.5587 12.8839 15.7957 13.2 15 13.2H2.502C2.62613 13.5511 2.8561 13.855 3.16021 14.07C3.46432 14.2849 3.82761 14.4002 4.2 14.4H15C16.1139 14.4 17.1822 13.9575 17.9699 13.1698C18.7575 12.3822 19.2 11.3139 19.2 10.2V4.2C19.2002 3.82761 19.0849 3.46432 18.87 3.16021C18.655 2.8561 18.3511 2.62613 18 2.502V10.2Z" fill="currentColor" />
</svg>