<svg xmlns="http://www.w3.org/2000/svg" viewBox="0 0 28.9688 26.0313">

    <g>
        <g>
            <path fill="currentColor" d="M6,14.0313a6,6,0,1,1-4.2426,1.7573A6,6,0,0,1,6,14.0313Zm-2.625,5.625a.375.375,0,0,0,0,.75H7.72L6.11,22.0157a.3755.3755,0,0,0,.531.5311l2.25-2.25a.3752.3752,0,0,0,0-.5311l-2.25-2.25a.3755.3755,0,0,0-.531.5311l1.61,1.61Z" />
            <path fill="currentColor" d="M28.7247,8.6564a.8709.8709,0,0,0-.5891-.2246h-.8332V3.8326a.7371.7371,0,0,0-.2441-.542.8717.8717,0,0,0-.5891-.2245H6.4727a.88.88,0,0,1-.5419-.1737A.7569.7569,0,0,1,5.64,2.4376v-.276a.7569.7569,0,0,1,.2913-.4549.8808.8808,0,0,1,.5419-.1737H26.1193a.871.871,0,0,0,.5891-.2245.7369.7369,0,0,0,.2441-.542.7369.7369,0,0,0-.2441-.542A.871.871,0,0,0,26.1193,0H6.4727A2.6136,2.6136,0,0,0,4.7053.6735,2.21,2.21,0,0,0,3.9731,2.3a2.1911,2.1911,0,0,0,0,.276V14.5905A5.8313,5.8313,0,0,1,5.64,14.3V4.5072a2.8048,2.8048,0,0,0,.8332.092H25.636V8.4318H19.8036A4.3564,4.3564,0,0,0,16.858,9.5544a3.62,3.62,0,0,0,0,5.42,4.3564,4.3564,0,0,0,2.9456,1.1226H25.636V19.93H11.6071c.0006.0342.0051.0674.0051.1018a5.6766,5.6766,0,0,1-.1891,1.4313H26.4692a.8717.8717,0,0,0,.5891-.2245.7371.7371,0,0,0,.2441-.542V16.0972h.8332a.8713.8713,0,0,0,.5891-.2245.7369.7369,0,0,0,.2441-.5421V9.1984A.7365.7365,0,0,0,28.7247,8.6564Zm-1.4223,5.9077H19.8036a2.6137,2.6137,0,0,1-1.7673-.6735,2.1716,2.1716,0,0,1,0-3.2521,2.6133,2.6133,0,0,1,1.7673-.6736h7.4988Z" />
            <path fill="currentColor" d="M20.6453,13.4141a1.1538,1.1538,0,1,0-1.25-1.15A1.2029,1.2029,0,0,0,20.6453,13.4141Z" />
        </g>
    </g>
</svg>