<svg viewBox="0 0 17 20" fill="none" xmlns="http://www.w3.org/2000/svg">
    <path d="M2.25 0C1.65326 0 1.08097 0.237053 0.65901 0.65901C0.237053 1.08097 0 1.65326 0 2.25V17.75C0 18.3467 0.237053 18.919 0.65901 19.341C1.08097 19.7629 1.65326 20 2.25 20H9.75C10.3431 20 10.9123 19.7659 11.3336 19.3484C11.755 18.931 11.9945 18.3641 12 17.771V16.251C12 16.0521 11.921 15.8613 11.7803 15.7207C11.6397 15.58 11.4489 15.501 11.25 15.501C10.796 15.501 10.51 15.378 10.313 15.219C10.105 15.052 9.933 14.794 9.803 14.43C9.53 13.675 9.5 12.68 9.5 11.75C9.49999 11.5599 9.42779 11.3769 9.298 11.238L9.134 11.061C9.08007 11.0007 9.02334 10.943 8.964 10.888C8.89 10.818 8.664 10.603 7.78 9.72C7.312 9.251 7.052 8.855 6.967 8.552C6.93292 8.44698 6.92773 8.33472 6.952 8.227C6.98931 8.10276 7.05985 7.99107 7.156 7.904C7.24273 7.80792 7.35408 7.73738 7.478 7.7C7.58547 7.67609 7.69741 7.68162 7.802 7.716C8.105 7.801 8.501 8.062 8.97 8.531C9.51 9.071 10.022 9.577 10.481 10.031C11.241 10.783 11.855 11.391 12.201 11.761C12.3367 11.9066 12.5246 11.9924 12.7235 11.9994C12.9224 12.0064 13.1159 11.9342 13.2615 11.7985C13.4071 11.6628 13.4929 11.4749 13.4999 11.276C13.5069 11.0771 13.4347 10.8836 13.299 10.738C12.873 10.2928 12.4396 9.85472 11.999 9.424V6.06L14.841 8.902C15.263 9.324 15.5 9.896 15.5 10.492V19.25C15.5 19.4489 15.579 19.6397 15.7197 19.7803C15.8603 19.921 16.0511 20 16.25 20C16.4489 20 16.6397 19.921 16.7803 19.7803C16.921 19.6397 17 19.4489 17 19.25V10.493C17.0001 10.0005 16.9032 9.51282 16.7148 9.05779C16.5264 8.60276 16.2502 8.18929 15.902 7.841L12 3.939V2.249C11.9997 1.65244 11.7626 1.0804 11.3406 0.658656C10.9187 0.236916 10.3466 -5.89199e-08 9.75 0H2.25ZM8.392 14.94C8.488 15.208 8.613 15.474 8.775 15.722C8.39306 15.9056 8.07074 16.1934 7.84518 16.5522C7.61961 16.911 7.49996 17.3262 7.5 17.75V18.5H4.5V17.75C4.5 17.1533 4.26295 16.581 3.84099 16.159C3.41903 15.7371 2.84674 15.5 2.25 15.5H1.5V4.5H2.25C2.84674 4.5 3.41903 4.26295 3.84099 3.84099C4.26295 3.41903 4.5 2.84674 4.5 2.25V1.5H7.5V2.25C7.5 2.84674 7.73705 3.41903 8.15901 3.84099C8.58097 4.26295 9.15326 4.5 9.75 4.5H10.5V7.938L10.03 7.47C9.5 6.939 8.882 6.462 8.21 6.272C7.85077 6.16562 7.46967 6.15699 7.106 6.247C6.88038 6.30545 6.66633 6.40182 6.473 6.532C5.90762 6.45488 5.33196 6.51717 4.79617 6.71342C4.26037 6.90968 3.78068 7.23397 3.39888 7.65803C3.01708 8.08209 2.74476 8.59307 2.60562 9.14646C2.46648 9.69985 2.46476 10.2789 2.60059 10.8331C2.73643 11.3873 3.0057 11.8999 3.38497 12.3262C3.76423 12.7525 4.24198 13.0797 4.7766 13.2791C5.31122 13.4786 5.88649 13.5443 6.45232 13.4705C7.01815 13.3968 7.55736 13.1858 8.023 12.856C8.061 13.54 8.154 14.283 8.392 14.94ZM4 10C3.99985 9.56447 4.14187 9.1408 4.40449 8.79335C4.6671 8.44591 5.03595 8.19368 5.455 8.075C5.41644 8.37087 5.43959 8.67152 5.523 8.958C5.713 9.631 6.188 10.249 6.72 10.781L7.385 11.443C7.10214 11.7145 6.7457 11.8969 6.36001 11.9675C5.97432 12.0381 5.57639 11.9937 5.2157 11.84C4.85502 11.6862 4.54748 11.4298 4.33133 11.1027C4.11519 10.7755 3.99997 10.3921 4 10ZM1.5 2.25C1.5 2.05109 1.57902 1.86032 1.71967 1.71967C1.86032 1.57902 2.05109 1.5 2.25 1.5H3V2.25C3 2.44891 2.92098 2.63968 2.78033 2.78033C2.63968 2.92098 2.44891 3 2.25 3H1.5V2.25ZM9 1.5H9.75C9.94891 1.5 10.1397 1.57902 10.2803 1.71967C10.421 1.86032 10.5 2.05109 10.5 2.25V3H9.75C9.55109 3 9.36032 2.92098 9.21967 2.78033C9.07902 2.63968 9 2.44891 9 2.25V1.5ZM10.5 17V17.75C10.5 17.9489 10.421 18.1397 10.2803 18.2803C10.1397 18.421 9.94891 18.5 9.75 18.5H9V17.75C9 17.5511 9.07902 17.3603 9.21967 17.2197C9.36032 17.079 9.55109 17 9.75 17H10.5ZM3 18.5H2.25C2.05109 18.5 1.86032 18.421 1.71967 18.2803C1.57902 18.1397 1.5 17.9489 1.5 17.75V17H2.25C2.44891 17 2.63968 17.079 2.78033 17.2197C2.92098 17.3603 3 17.5511 3 17.75V18.5Z" fill="currentColor" />
</svg>