<svg viewBox="0 0 20 20" fill="none" xmlns="http://www.w3.org/2000/svg">
    <path d="M17.2571 19.5H17.1296C2.39215 18.6525 0.299644 6.2175 0.00714362 2.4225C-0.0164249 2.12744 0.0184601 1.83062 0.1098 1.54906C0.20114 1.2675 0.347139 1.00673 0.539432 0.781689C0.731725 0.55665 0.966533 0.371766 1.2304 0.23763C1.49427 0.103493 1.78201 0.0227414 2.07714 7.03193e-07H6.20964C6.51006 -0.00029012 6.80365 0.089633 7.05237 0.258122C7.30109 0.426611 7.49349 0.665903 7.60464 0.945001L8.74464 3.75C8.85441 4.02266 8.88165 4.32156 8.82298 4.60957C8.76431 4.89758 8.62232 5.162 8.41464 5.37L6.81714 6.9825C7.06668 8.40056 7.74578 9.70775 8.76257 10.7272C9.77935 11.7467 11.0847 12.4292 12.5021 12.6825L14.1296 11.07C14.3408 10.8646 14.6077 10.7259 14.8971 10.6713C15.1865 10.6166 15.4856 10.6483 15.7571 10.7625L18.5846 11.895C18.8595 12.0097 19.0941 12.2036 19.2584 12.452C19.4226 12.7004 19.5093 12.9922 19.5071 13.29V17.25C19.5071 17.8467 19.2701 18.419 18.8481 18.841C18.4262 19.2629 17.8539 19.5 17.2571 19.5ZM2.25714 1.5C2.05823 1.5 1.86747 1.57902 1.72681 1.71967C1.58616 1.86032 1.50714 2.05109 1.50714 2.25V2.31C1.85214 6.75 4.06464 17.25 17.2121 18C17.3107 18.0061 17.4094 17.9927 17.5028 17.9605C17.5961 17.9283 17.6822 17.8781 17.756 17.8126C17.8299 17.7471 17.8901 17.6676 17.9332 17.5788C17.9763 17.49 18.0014 17.3936 18.0071 17.295V13.29L15.1796 12.1575L13.0271 14.295L12.6671 14.25C6.14214 13.4325 5.25714 6.9075 5.25714 6.84L5.21214 6.48L7.34214 4.3275L6.21714 1.5H2.25714Z" fill="currentColor" />
</svg>