<svg viewBox="0 0 12 18" fill="none" xmlns="http://www.w3.org/2000/svg">
    <path fill-rule="evenodd" clip-rule="evenodd" d="M0.713128 5.187C0.287128 5.187 -0.0578714 4.8315 0.00812856 4.4115C0.420629 1.86 2.36463 0 5.73813 0C9.11313 0 11.3886 2.04 11.3886 4.8225C11.3886 6.8385 10.3911 8.2545 8.70363 9.282C7.05363 10.2705 6.58263 10.959 6.58263 12.297V12.342C6.58263 12.5409 6.50361 12.7317 6.36296 12.8723C6.22231 13.013 6.03154 13.092 5.83263 13.092H4.67763C4.48001 13.092 4.29037 13.014 4.14993 12.875C4.00949 12.736 3.9296 12.5471 3.92763 12.3495L3.92313 12.0495C3.85863 10.218 4.63863 9.048 6.39063 7.9815C7.93563 7.0335 8.48613 6.279 8.48613 4.9395C8.48613 3.471 7.34913 2.3925 5.59713 2.3925C4.08363 2.3925 3.03213 3.186 2.69013 4.4955C2.59113 4.8765 2.27313 5.187 1.88013 5.187H0.714628H0.713128ZM5.24463 18C6.17763 18 6.88713 17.289 6.88713 16.365C6.88713 15.438 6.17763 14.727 5.24463 14.727C4.33563 14.727 3.61413 15.438 3.61413 16.3635C3.61413 17.289 4.33563 18 5.24463 18Z" fill="currentColor" />
</svg>