<svg viewBox="0 0 38 42" fill="none" xmlns="http://www.w3.org/2000/svg">
    <path d="M24.0385 42C23.8504 41.9994 23.6645 41.9614 23.4923 41.8882C23.32 41.8151 23.1652 41.7084 23.0373 41.5749L16.3718 34.7067C16.1226 34.4494 15.9891 34.1069 16.0007 33.7544C16.0123 33.4018 16.1679 33.0682 16.4335 32.8269C16.699 32.5855 17.0527 32.4562 17.4166 32.4674C17.7806 32.4786 18.125 32.6294 18.3742 32.8866L24.0248 38.7187L35.5591 26.4967C35.6762 26.3555 35.8218 26.239 35.987 26.1543C36.1523 26.0696 36.3336 26.0185 36.52 26.0042C36.7063 25.9898 36.8938 26.0126 37.0707 26.0709C37.2477 26.1293 37.4104 26.2221 37.549 26.3437C37.6876 26.4652 37.7991 26.6129 37.8766 26.7777C37.9541 26.9425 37.996 27.1209 37.9997 27.3019C38.0035 27.4829 37.969 27.6628 37.8983 27.8305C37.8277 27.9981 37.7224 28.15 37.589 28.2768L25.0534 41.5616C24.9267 41.6976 24.7724 41.8067 24.6001 41.8822C24.4278 41.9576 24.2413 41.9977 24.0522 42H24.0385Z" fill="currentColor" />
    <path d="M3.73333 1.86667C3.73333 1.3716 3.93 0.896802 4.28007 0.546734C4.63014 0.196666 5.10493 0 5.6 0H20.5333C21.0284 0 21.5032 0.196666 21.8533 0.546734C22.2033 0.896802 22.4 1.3716 22.4 1.86667V26.1333H25.2C25.4475 26.1333 25.6849 26.2317 25.86 26.4067C26.035 26.5817 26.1333 26.8191 26.1333 27.0667C26.1333 27.3142 26.035 27.5516 25.86 27.7266C25.6849 27.9017 25.4475 28 25.2 28H0.933333C0.685798 28 0.448401 27.9017 0.273367 27.7266C0.098333 27.5516 0 27.3142 0 27.0667C0 26.8191 0.098333 26.5817 0.273367 26.4067C0.448401 26.2317 0.685798 26.1333 0.933333 26.1333H3.73333V1.86667ZM5.6 26.1333H20.5333V1.86667H5.6V26.1333Z" fill="currentColor" />
    <path d="M14.9333 14.9331C14.9333 15.4282 15.1299 15.9029 15.48 16.253C15.8301 16.6031 16.3049 16.7997 16.7999 16.7997C17.295 16.7997 17.7698 16.6031 18.1199 16.253C18.4699 15.9029 18.6666 15.4282 18.6666 14.9331C18.6666 14.438 18.4699 13.9632 18.1199 13.6131C17.7698 13.2631 17.295 13.0664 16.7999 13.0664C16.3049 13.0664 15.8301 13.2631 15.48 13.6131C15.1299 13.9632 14.9333 14.438 14.9333 14.9331Z" fill="currentColor" />
</svg>