<svg viewBox="0 0 24 19" fill="none" xmlns="http://www.w3.org/2000/svg">
    <path d="M8.28751 3.03756C8.77503 2.54999 9.35381 2.16323 9.9908 1.89936C10.6278 1.63549 11.3105 1.49968 12 1.49968C12.6895 1.49968 13.3722 1.63549 14.0092 1.89936C14.6462 2.16323 15.225 2.54999 15.7125 3.03756C15.7817 3.10919 15.8645 3.16633 15.956 3.20563C16.0475 3.24494 16.1459 3.26563 16.2455 3.2665C16.345 3.26736 16.4438 3.24839 16.536 3.21068C16.6282 3.17296 16.7119 3.11727 16.7823 3.04685C16.8527 2.97644 16.9084 2.8927 16.9461 2.80052C16.9838 2.70835 17.0028 2.60959 17.002 2.51001C17.0011 2.41042 16.9804 2.31201 16.9411 2.22051C16.9018 2.129 16.8446 2.04624 16.773 1.97706C16.1462 1.35025 15.4021 0.853046 14.5831 0.513821C13.7642 0.174597 12.8864 0 12 0C11.1136 0 10.2358 0.174597 9.41688 0.513821C8.59793 0.853046 7.85381 1.35025 7.22701 1.97706C7.09039 2.11851 7.0148 2.30796 7.01651 2.50461C7.01822 2.70126 7.09709 2.88937 7.23615 3.02842C7.37521 3.16748 7.56331 3.24636 7.75996 3.24806C7.95661 3.24977 8.14606 3.17418 8.28751 3.03756V3.03756Z" fill="currentColor" />
    <path d="M10.41 5.15997C10.8319 4.73862 11.4037 4.50195 12 4.50195C12.5963 4.50195 13.1681 4.73862 13.59 5.15997C13.7308 5.3008 13.9218 5.37991 14.121 5.37991C14.3202 5.37991 14.5112 5.3008 14.652 5.15997C14.7928 5.01914 14.8719 4.82813 14.8719 4.62897C14.8719 4.4298 14.7928 4.2388 14.652 4.09797C14.3038 3.74964 13.8903 3.47333 13.4353 3.28481C12.9803 3.0963 12.4925 2.99927 12 2.99927C11.5075 2.99927 11.0197 3.0963 10.5647 3.28481C10.1097 3.47333 9.69623 3.74964 9.348 4.09797C9.21138 4.23942 9.13579 4.42887 9.13749 4.62552C9.1392 4.82217 9.21808 5.01027 9.35714 5.14933C9.49619 5.28839 9.6843 5.36726 9.88095 5.36897C10.0776 5.37068 10.267 5.29509 10.4085 5.15847L10.41 5.15997ZM3.75 15C3.55109 15 3.36032 14.921 3.21967 14.7803C3.07902 14.6396 3 14.4489 3 14.25C3 14.0511 3.07902 13.8603 3.21967 13.7196C3.36032 13.579 3.55109 13.5 3.75 13.5C3.94891 13.5 4.13968 13.579 4.28033 13.7196C4.42098 13.8603 4.5 14.0511 4.5 14.25C4.5 14.4489 4.42098 14.6396 4.28033 14.7803C4.13968 14.921 3.94891 15 3.75 15ZM10.5 14.25C10.5 14.4489 10.579 14.6396 10.7197 14.7803C10.8603 14.921 11.0511 15 11.25 15C11.4489 15 11.6397 14.921 11.7803 14.7803C11.921 14.6396 12 14.4489 12 14.25C12 14.0511 11.921 13.8603 11.7803 13.7196C11.6397 13.579 11.4489 13.5 11.25 13.5C11.0511 13.5 10.8603 13.579 10.7197 13.7196C10.579 13.8603 10.5 14.0511 10.5 14.25ZM14.25 15C14.0511 15 13.8603 14.921 13.7197 14.7803C13.579 14.6396 13.5 14.4489 13.5 14.25C13.5 14.0511 13.579 13.8603 13.7197 13.7196C13.8603 13.579 14.0511 13.5 14.25 13.5C14.4489 13.5 14.6397 13.579 14.7803 13.7196C14.921 13.8603 15 14.0511 15 14.25C15 14.4489 14.921 14.6396 14.7803 14.7803C14.6397 14.921 14.4489 15 14.25 15ZM16.5 14.25C16.5 14.4489 16.579 14.6396 16.7197 14.7803C16.8603 14.921 17.0511 15 17.25 15C17.4489 15 17.6397 14.921 17.7803 14.7803C17.921 14.6396 18 14.4489 18 14.25C18 14.0511 17.921 13.8603 17.7803 13.7196C17.6397 13.579 17.4489 13.5 17.25 13.5C17.0511 13.5 16.8603 13.579 16.7197 13.7196C16.579 13.8603 16.5 14.0511 16.5 14.25ZM19.5 14.25C19.5 14.4489 19.579 14.6396 19.7197 14.7803C19.8603 14.921 20.0511 15 20.25 15C20.4489 15 20.6397 14.921 20.7803 14.7803C20.921 14.6396 21 14.4489 21 14.25C21 14.0511 20.921 13.8603 20.7803 13.7196C20.6397 13.579 20.4489 13.5 20.25 13.5C20.0511 13.5 19.8603 13.579 19.7197 13.7196C19.579 13.8603 19.5 14.0511 19.5 14.25Z" fill="currentColor" />
    <path d="M4.461 2.01314C4.43275 1.91629 4.38525 1.82614 4.32135 1.74807C4.25744 1.67 4.17844 1.60563 4.08908 1.55881C3.99972 1.51199 3.90182 1.48368 3.80126 1.47557C3.7007 1.46746 3.59954 1.47973 3.50383 1.51163C3.40812 1.54354 3.31983 1.59442 3.24424 1.66124C3.16866 1.72806 3.10733 1.80945 3.06394 1.90053C3.02054 1.9916 2.99596 2.0905 2.99168 2.19129C2.98739 2.29209 3.00349 2.39271 3.039 2.48714L5.709 10.5001H2.25C1.65326 10.5001 1.08097 10.7372 0.65901 11.1592C0.237053 11.5811 0 12.1534 0 12.7501L0 15.7501C0 16.3469 0.237053 16.9192 0.65901 17.3411C1.08097 17.7631 1.65326 18.0001 2.25 18.0001H3C3 18.1991 3.07902 18.3898 3.21967 18.5305C3.36032 18.6711 3.55109 18.7501 3.75 18.7501H6.75C6.94891 18.7501 7.13968 18.6711 7.28033 18.5305C7.42098 18.3898 7.5 18.1991 7.5 18.0001H16.5C16.5 18.1991 16.579 18.3898 16.7197 18.5305C16.8603 18.6711 17.0511 18.7501 17.25 18.7501H20.25C20.4489 18.7501 20.6397 18.6711 20.7803 18.5305C20.921 18.3898 21 18.1991 21 18.0001H21.75C22.3467 18.0001 22.919 17.7631 23.341 17.3411C23.7629 16.9192 24 16.3469 24 15.7501V12.7501C24 12.1534 23.7629 11.5811 23.341 11.1592C22.919 10.7372 22.3467 10.5001 21.75 10.5001H18.291L20.961 2.48714C20.9965 2.39271 21.0126 2.29209 21.0083 2.19129C21.004 2.0905 20.9795 1.9916 20.9361 1.90053C20.8927 1.80945 20.8313 1.72806 20.7558 1.66124C20.6802 1.59442 20.5919 1.54354 20.4962 1.51163C20.4005 1.47973 20.2993 1.46746 20.1987 1.47557C20.0982 1.48368 20.0003 1.51199 19.9109 1.55881C19.8216 1.60563 19.7426 1.67 19.6787 1.74807C19.6147 1.82614 19.5672 1.91629 19.539 2.01314L16.71 10.5001H7.29L4.461 2.01314ZM21.75 12.0001C21.9489 12.0001 22.1397 12.0792 22.2803 12.2198C22.421 12.3605 22.5 12.5512 22.5 12.7501V15.7501C22.5 15.9491 22.421 16.1398 22.2803 16.2805C22.1397 16.4211 21.9489 16.5001 21.75 16.5001H2.25C2.05109 16.5001 1.86032 16.4211 1.71967 16.2805C1.57902 16.1398 1.5 15.9491 1.5 15.7501V12.7501C1.5 12.5512 1.57902 12.3605 1.71967 12.2198C1.86032 12.0792 2.05109 12.0001 2.25 12.0001H21.75Z" fill="currentColor" />
    <path d="M12.75 6.75C12.75 6.94891 12.671 7.13968 12.5303 7.28033C12.3897 7.42098 12.1989 7.5 12 7.5C11.8011 7.5 11.6103 7.42098 11.4697 7.28033C11.329 7.13968 11.25 6.94891 11.25 6.75C11.25 6.55109 11.329 6.36032 11.4697 6.21967C11.6103 6.07902 11.8011 6 12 6C12.1989 6 12.3897 6.07902 12.5303 6.21967C12.671 6.36032 12.75 6.55109 12.75 6.75V6.75Z" fill="currentColor" />
</svg>