<svg viewBox="0 0 20 15" fill="none" xmlns="http://www.w3.org/2000/svg">
    <path d="M19.1875 12.6263H0.8125C0.709375 12.6263 0.625 12.7107 0.625 12.8138V14.1263C0.625 14.2295 0.709375 14.3138 0.8125 14.3138H19.1875C19.2906 14.3138 19.375 14.2295 19.375 14.1263V12.8138C19.375 12.7107 19.2906 12.6263 19.1875 12.6263ZM1.88359 9.69197L2.81406 10.6178C2.88672 10.6904 3.00625 10.6904 3.07891 10.6178L8.57969 5.13572L10.8672 7.41619C11.0081 7.55582 11.1985 7.63416 11.3969 7.63416C11.5953 7.63416 11.7856 7.55582 11.9266 7.41619L18.1188 1.24744C18.1914 1.17478 18.1914 1.05525 18.1188 0.982594L17.1883 0.0544689C17.153 0.0195746 17.1055 0 17.0559 0C17.0063 0 16.9587 0.0195746 16.9234 0.0544689L11.3992 5.56228L9.10938 3.28181C8.96844 3.14218 8.77808 3.06384 8.57969 3.06384C8.3813 3.06384 8.19093 3.14218 8.05 3.28181L1.88359 9.42712C1.86606 9.44444 1.85214 9.46505 1.84264 9.48779C1.83314 9.51052 1.82825 9.53491 1.82825 9.55955C1.82825 9.58418 1.83314 9.60858 1.84264 9.63131C1.85214 9.65404 1.86606 9.67466 1.88359 9.69197Z" fill="currentColor" />
</svg>