<svg viewBox="0 0 21 18" fill="none" xmlns="http://www.w3.org/2000/svg">
    <path d="M18.75 3.75H16.5V1.5C16.5 1.10218 16.342 0.720644 16.0607 0.43934C15.7794 0.158035 15.3978 0 15 0H6C5.60218 0 5.22064 0.158035 4.93934 0.43934C4.65804 0.720644 4.5 1.10218 4.5 1.5V3.75H2.25C1.65326 3.75 1.08097 3.98705 0.65901 4.40901C0.237053 4.83097 0 5.40326 0 6V16.5C0 16.8978 0.158035 17.2794 0.43934 17.5607C0.720644 17.842 1.10218 18 1.5 18H19.5C19.8978 18 20.2794 17.842 20.5607 17.5607C20.842 17.2794 21 16.8978 21 16.5V6C21 5.40326 20.7629 4.83097 20.341 4.40901C19.919 3.98705 19.3467 3.75 18.75 3.75ZM6 1.5H15V3.75H6V1.5ZM19.5 16.5H1.5V9.75H7.5V13.5H13.5V9.75H19.5V16.5ZM9 9.75H12V12H9V9.75ZM1.5 8.25V6C1.5 5.80109 1.57902 5.61032 1.71967 5.46967C1.86032 5.32902 2.05109 5.25 2.25 5.25H18.75C18.9489 5.25 19.1397 5.32902 19.2803 5.46967C19.421 5.61032 19.5 5.80109 19.5 6V8.25H1.5Z" fill="currentColor" />
</svg>