<svg viewBox="0 0 20 21" fill="none" xmlns="http://www.w3.org/2000/svg">
    <path d="M3 9H7.5V10.5H3V9ZM3 3H12V4.5H3V3ZM3 6H12V7.5H3V6ZM3 16.5H7.5V18H3V16.5ZM17.25 17.25H12.75C12.1533 17.25 11.581 17.4871 11.159 17.909C10.7371 18.331 10.5 18.9033 10.5 19.5V21H12V19.5C12 19.3011 12.079 19.1103 12.2197 18.9697C12.3603 18.829 12.5511 18.75 12.75 18.75H17.25C17.4489 18.75 17.6397 18.829 17.7803 18.9697C17.921 19.1103 18 19.3011 18 19.5V21H19.5V19.5C19.5 18.9033 19.2629 18.331 18.841 17.909C18.419 17.4871 17.8467 17.25 17.25 17.25ZM15 16.5C15.5933 16.5 16.1734 16.3241 16.6667 15.9944C17.1601 15.6648 17.5446 15.1962 17.7716 14.648C17.9987 14.0999 18.0581 13.4967 17.9424 12.9147C17.8266 12.3328 17.5409 11.7982 17.1213 11.3787C16.7018 10.9591 16.1672 10.6734 15.5853 10.5576C15.0033 10.4419 14.4001 10.5013 13.852 10.7284C13.3038 10.9554 12.8352 11.3399 12.5056 11.8333C12.1759 12.3266 12 12.9067 12 13.5C12 14.2956 12.3161 15.0587 12.8787 15.6213C13.4413 16.1839 14.2044 16.5 15 16.5ZM15 12C15.2967 12 15.5867 12.088 15.8334 12.2528C16.08 12.4176 16.2723 12.6519 16.3858 12.926C16.4994 13.2001 16.5291 13.5017 16.4712 13.7926C16.4133 14.0836 16.2704 14.3509 16.0607 14.5607C15.8509 14.7704 15.5836 14.9133 15.2926 14.9712C15.0017 15.0291 14.7001 14.9994 14.426 14.8858C14.1519 14.7723 13.9176 14.58 13.7528 14.3334C13.588 14.0867 13.5 13.7967 13.5 13.5C13.5 13.1022 13.658 12.7206 13.9393 12.4393C14.2206 12.158 14.6022 12 15 12V12Z" fill="currentColor" />
    <path d="M7.5 21H1.5C1.1023 20.9996 0.720997 20.8414 0.439779 20.5602C0.15856 20.279 0.000397108 19.8977 0 19.5V1.5C0.000397108 1.1023 0.15856 0.720997 0.439779 0.439778C0.720997 0.15856 1.1023 0.000397108 1.5 0H13.5C13.8977 0.000397108 14.279 0.15856 14.5602 0.439778C14.8414 0.720997 14.9996 1.1023 15 1.5V9H13.5V1.5H1.5V19.5H7.5V21Z" fill="currentColor" />
</svg>