<svg viewBox="0 0 18 19" fill="none" xmlns="http://www.w3.org/2000/svg">
    <path d="M16.9337 15.225C16.4915 14.1777 15.8499 13.2265 15.0446 12.4242C14.2417 11.6196 13.2906 10.9781 12.2438 10.5352C12.2344 10.5305 12.2251 10.5281 12.2157 10.5234C13.6758 9.46875 14.6251 7.75078 14.6251 5.8125C14.6251 2.60156 12.0235 0 8.81256 0C5.60162 0 3.00006 2.60156 3.00006 5.8125C3.00006 7.75078 3.94928 9.46875 5.40943 10.5258C5.40006 10.5305 5.39068 10.5328 5.38131 10.5375C4.33131 10.9805 3.38912 11.6156 2.58053 12.4266C1.77594 13.2295 1.13444 14.1806 0.691465 15.2273C0.256282 16.2522 0.0215788 17.3509 5.86078e-05 18.4641C-0.000566951 18.4891 0.00382061 18.514 0.0129629 18.5373C0.0221052 18.5605 0.0358171 18.5818 0.0532908 18.5997C0.0707645 18.6176 0.0916463 18.6318 0.114706 18.6415C0.137765 18.6513 0.162536 18.6563 0.187559 18.6562H1.59381C1.69693 18.6562 1.77897 18.5742 1.78131 18.4734C1.82818 16.6641 2.55475 14.9695 3.83912 13.6852C5.16803 12.3563 6.93287 11.625 8.81256 11.625C10.6922 11.625 12.4571 12.3563 13.786 13.6852C15.0704 14.9695 15.7969 16.6641 15.8438 18.4734C15.8462 18.5766 15.9282 18.6562 16.0313 18.6562H17.4376C17.4626 18.6563 17.4874 18.6513 17.5104 18.6415C17.5335 18.6318 17.5544 18.6176 17.5718 18.5997C17.5893 18.5818 17.603 18.5605 17.6122 18.5373C17.6213 18.514 17.6257 18.4891 17.6251 18.4641C17.6016 17.3437 17.3696 16.2539 16.9337 15.225V15.225ZM8.81256 9.84375C7.73678 9.84375 6.72428 9.42422 5.96256 8.6625C5.20084 7.90078 4.78131 6.88828 4.78131 5.8125C4.78131 4.73672 5.20084 3.72422 5.96256 2.9625C6.72428 2.20078 7.73678 1.78125 8.81256 1.78125C9.88834 1.78125 10.9008 2.20078 11.6626 2.9625C12.4243 3.72422 12.8438 4.73672 12.8438 5.8125C12.8438 6.88828 12.4243 7.90078 11.6626 8.6625C10.9008 9.42422 9.88834 9.84375 8.81256 9.84375Z" fill="currentColor" />
</svg>