<svg viewBox="0 0 16 21" fill="none" xmlns="http://www.w3.org/2000/svg">
    <path d="M14.5 13.3785C14.5 17.5209 11.8923 20.1285 7.75 20.1285C3.60766 20.1285 1 17.5209 1 13.3785C1 8.93336 5.83891 2.93243 7.32297 1.19664C7.37578 1.13497 7.44131 1.08547 7.51506 1.05152C7.58882 1.01758 7.66904 1 7.75023 1C7.83143 1 7.91165 1.01758 7.98541 1.05152C8.05916 1.08547 8.12469 1.13497 8.1775 1.19664C9.66109 2.93243 14.5 8.93336 14.5 13.3785Z" stroke="currentColor" stroke-width="1.5" stroke-miterlimit="10" />
    <path d="M11.875 13.7534C11.875 14.6485 11.5194 15.507 10.8865 16.1399C10.2535 16.7728 9.39511 17.1284 8.5 17.1284" stroke="currentColor" stroke-width="1.5" stroke-linecap="round" stroke-linejoin="round" />
</svg>