<svg viewBox="0 0 20 20" fill="none" xmlns="http://www.w3.org/2000/svg">
    <path d="M17.619 9.30017C16.8574 10.0634 15.8865 10.5837 14.8292 10.7951C13.7719 11.0066 12.6756 10.8998 11.679 10.4882L5.187 18.3122C3.999 19.5002 2.079 19.5002 0.891 18.3122C-0.297 17.1242 -0.297 15.2042 0.891 14.0282L8.715 7.52417C7.899 5.54417 8.295 3.19217 9.903 1.58417C11.439 0.0481693 13.647 -0.359831 15.567 0.312169L12.099 3.78017L15.483 7.16417L18.915 3.72017C19.551 5.61617 19.131 7.78817 17.619 9.30017ZM2.175 17.0282C2.655 17.4962 3.423 17.4962 3.891 17.0282C4.371 16.5482 4.371 15.7802 3.891 15.3122C3.423 14.8322 2.655 14.8322 2.175 15.3122C1.95001 15.5411 1.82393 15.8492 1.82393 16.1702C1.82393 16.4911 1.95001 16.7993 2.175 17.0282Z" fill="currentColor" />
</svg>