<svg viewBox="0 0 19 19" fill="none" xmlns="http://www.w3.org/2000/svg">
    <path d="M17.8908 2.95076C17.8791 2.92967 17.8627 2.90857 17.8439 2.89217C17.7267 2.77498 17.5369 2.77498 17.4197 2.89217L13.3814 6.93045L11.79 5.33904L15.8307 1.29842C15.8494 1.27967 15.8635 1.26092 15.8775 1.23982C15.9619 1.09686 15.915 0.914043 15.7721 0.829668C13.4705 -0.529707 10.4564 -0.217988 8.47597 1.76014C6.90566 3.33045 6.38534 5.55701 6.91737 7.55857L0.0501877 14.4258C-0.0201248 14.4961 -0.0154374 14.6109 0.0572188 14.6836L4.03456 18.6609C4.10722 18.7336 4.22441 18.7383 4.29237 18.6679L11.1572 11.8031C13.1611 12.3375 15.3877 11.8195 16.9603 10.2469C18.9385 8.26639 19.2502 5.25232 17.8908 2.95076V2.95076ZM15.7674 9.05154C14.4057 10.4133 12.3619 10.6758 10.7377 9.83904L10.5314 10.0453L10.5291 10.0429L4.10722 16.4672L2.25097 14.6109L7.64394 9.21795C7.64394 9.21795 7.64394 9.22029 7.64628 9.22029L8.88378 7.98279C8.04706 6.35857 8.30956 4.31482 9.67128 2.95311C10.1105 2.51353 10.6394 2.17394 11.2218 1.95753C11.8043 1.74113 12.4266 1.65301 13.0463 1.6992L9.93144 4.8117C9.79075 4.95255 9.71172 5.14348 9.71172 5.34256C9.71172 5.54163 9.79075 5.73257 9.93144 5.87342L12.8494 8.79139C12.9903 8.93208 13.1812 9.0111 13.3803 9.0111C13.5793 9.0111 13.7703 8.93208 13.9111 8.79139L17.0236 5.67889C17.1103 6.89295 16.6861 8.13514 15.7674 9.05154V9.05154Z" fill="currentColor" />
</svg>